<mxfile host="app.diagrams.net" modified="2024-01-05T03:18:46.214Z" agent="Mozilla/5.0 (Windows NT 10.0; Win64; x64) AppleWebKit/537.36 (KHTML, like Gecko) Chrome/120.0.0.0 Safari/537.36 Edg/120.0.0.0" etag="oVL8iEnNWm97_XQ7zLAT" version="22.1.16" type="github">
  <diagram id="C5RBs43oDa-KdzZeNtuy" name="Page-1">
    <mxGraphModel dx="1379" dy="788" grid="1" gridSize="10" guides="1" tooltips="1" connect="1" arrows="1" fold="1" page="1" pageScale="1" pageWidth="827" pageHeight="1169" math="0" shadow="0">
      <root>
        <mxCell id="WIyWlLk6GJQsqaUBKTNV-0" />
        <mxCell id="WIyWlLk6GJQsqaUBKTNV-1" parent="WIyWlLk6GJQsqaUBKTNV-0" />
        <mxCell id="qHYANq4Pt8BAIVUC_QP_-0" value="CMA_RA&lt;br&gt;气象场数据" style="ellipse;whiteSpace=wrap;html=1;" parent="WIyWlLk6GJQsqaUBKTNV-1" vertex="1">
          <mxGeometry x="55" y="50" width="80" height="40" as="geometry" />
        </mxCell>
        <mxCell id="qHYANq4Pt8BAIVUC_QP_-1" value="STRM 90m&amp;nbsp; DEM数据" style="ellipse;whiteSpace=wrap;html=1;" parent="WIyWlLk6GJQsqaUBKTNV-1" vertex="1">
          <mxGeometry x="50" y="100" width="90" height="50" as="geometry" />
        </mxCell>
        <mxCell id="qHYANq4Pt8BAIVUC_QP_-3" value="ESA WorldCover 10m 2020&lt;br style=&quot;border-color: var(--border-color);&quot;&gt;地表覆盖数据" style="ellipse;whiteSpace=wrap;html=1;" parent="WIyWlLk6GJQsqaUBKTNV-1" vertex="1">
          <mxGeometry x="10" y="270" width="170" height="40" as="geometry" />
        </mxCell>
        <mxCell id="qHYANq4Pt8BAIVUC_QP_-5" value="Anderson可燃物数据" style="ellipse;whiteSpace=wrap;html=1;" parent="WIyWlLk6GJQsqaUBKTNV-1" vertex="1">
          <mxGeometry x="10" y="220" width="170" height="40" as="geometry" />
        </mxCell>
        <mxCell id="qHYANq4Pt8BAIVUC_QP_-6" value="ASTER GDEM 30m DEM数据" style="ellipse;whiteSpace=wrap;html=1;" parent="WIyWlLk6GJQsqaUBKTNV-1" vertex="1">
          <mxGeometry x="50" y="160" width="90" height="50" as="geometry" />
        </mxCell>
        <mxCell id="qHYANq4Pt8BAIVUC_QP_-7" value="HGT_M变量&lt;br&gt;HGT_U变量&lt;br&gt;HGT_V变量" style="rounded=0;whiteSpace=wrap;html=1;" parent="WIyWlLk6GJQsqaUBKTNV-1" vertex="1">
          <mxGeometry x="210" y="100" width="80" height="45" as="geometry" />
        </mxCell>
        <mxCell id="qHYANq4Pt8BAIVUC_QP_-8" value="ZSF变量" style="rounded=0;whiteSpace=wrap;html=1;" parent="WIyWlLk6GJQsqaUBKTNV-1" vertex="1">
          <mxGeometry x="210" y="165" width="80" height="40" as="geometry" />
        </mxCell>
        <mxCell id="qHYANq4Pt8BAIVUC_QP_-9" value="NFUEL_CAT变量" style="rounded=0;whiteSpace=wrap;html=1;" parent="WIyWlLk6GJQsqaUBKTNV-1" vertex="1">
          <mxGeometry x="210" y="250" width="80" height="40" as="geometry" />
        </mxCell>
        <mxCell id="qHYANq4Pt8BAIVUC_QP_-10" value="" style="endArrow=classic;html=1;rounded=0;exitX=1;exitY=0.49;exitDx=0;exitDy=0;exitPerimeter=0;" parent="WIyWlLk6GJQsqaUBKTNV-1" source="qHYANq4Pt8BAIVUC_QP_-1" edge="1">
          <mxGeometry width="50" height="50" relative="1" as="geometry">
            <mxPoint x="150" y="124.5" as="sourcePoint" />
            <mxPoint x="210" y="125" as="targetPoint" />
          </mxGeometry>
        </mxCell>
        <mxCell id="qHYANq4Pt8BAIVUC_QP_-11" value="" style="endArrow=classic;html=1;rounded=0;exitX=1;exitY=0.49;exitDx=0;exitDy=0;exitPerimeter=0;entryX=0;entryY=0.5;entryDx=0;entryDy=0;" parent="WIyWlLk6GJQsqaUBKTNV-1" target="qHYANq4Pt8BAIVUC_QP_-8" edge="1">
          <mxGeometry width="50" height="50" relative="1" as="geometry">
            <mxPoint x="140" y="185" as="sourcePoint" />
            <mxPoint x="200" y="184.5" as="targetPoint" />
          </mxGeometry>
        </mxCell>
        <mxCell id="qHYANq4Pt8BAIVUC_QP_-12" value="" style="endArrow=classic;html=1;rounded=0;" parent="WIyWlLk6GJQsqaUBKTNV-1" edge="1">
          <mxGeometry width="50" height="50" relative="1" as="geometry">
            <mxPoint x="190" y="265" as="sourcePoint" />
            <mxPoint x="210" y="265" as="targetPoint" />
          </mxGeometry>
        </mxCell>
        <mxCell id="qHYANq4Pt8BAIVUC_QP_-13" value="" style="endArrow=none;html=1;rounded=0;" parent="WIyWlLk6GJQsqaUBKTNV-1" edge="1">
          <mxGeometry width="50" height="50" relative="1" as="geometry">
            <mxPoint x="180" y="240" as="sourcePoint" />
            <mxPoint x="190" y="240" as="targetPoint" />
          </mxGeometry>
        </mxCell>
        <mxCell id="qHYANq4Pt8BAIVUC_QP_-15" value="" style="endArrow=none;html=1;rounded=0;" parent="WIyWlLk6GJQsqaUBKTNV-1" edge="1">
          <mxGeometry width="50" height="50" relative="1" as="geometry">
            <mxPoint x="180" y="289.5" as="sourcePoint" />
            <mxPoint x="190" y="290" as="targetPoint" />
          </mxGeometry>
        </mxCell>
        <mxCell id="qHYANq4Pt8BAIVUC_QP_-16" value="" style="endArrow=none;html=1;rounded=0;" parent="WIyWlLk6GJQsqaUBKTNV-1" edge="1">
          <mxGeometry width="50" height="50" relative="1" as="geometry">
            <mxPoint x="190" y="290" as="sourcePoint" />
            <mxPoint x="190" y="240" as="targetPoint" />
          </mxGeometry>
        </mxCell>
        <mxCell id="qHYANq4Pt8BAIVUC_QP_-19" value="WPS模块" style="rounded=1;whiteSpace=wrap;html=1;" parent="WIyWlLk6GJQsqaUBKTNV-1" vertex="1">
          <mxGeometry x="350" y="145" width="100" height="75" as="geometry" />
        </mxCell>
        <mxCell id="qHYANq4Pt8BAIVUC_QP_-20" value="WRF-SFIRE模块" style="rounded=1;whiteSpace=wrap;html=1;" parent="WIyWlLk6GJQsqaUBKTNV-1" vertex="1">
          <mxGeometry x="480" y="145" width="100" height="75" as="geometry" />
        </mxCell>
        <mxCell id="qHYANq4Pt8BAIVUC_QP_-21" value="" style="endArrow=none;html=1;rounded=0;" parent="WIyWlLk6GJQsqaUBKTNV-1" edge="1">
          <mxGeometry width="50" height="50" relative="1" as="geometry">
            <mxPoint x="135" y="69.5" as="sourcePoint" />
            <mxPoint x="320" y="70" as="targetPoint" />
          </mxGeometry>
        </mxCell>
        <mxCell id="qHYANq4Pt8BAIVUC_QP_-22" value="" style="endArrow=none;html=1;rounded=0;" parent="WIyWlLk6GJQsqaUBKTNV-1" edge="1">
          <mxGeometry width="50" height="50" relative="1" as="geometry">
            <mxPoint x="290" y="122" as="sourcePoint" />
            <mxPoint x="320" y="122" as="targetPoint" />
          </mxGeometry>
        </mxCell>
        <mxCell id="qHYANq4Pt8BAIVUC_QP_-23" value="" style="endArrow=none;html=1;rounded=0;" parent="WIyWlLk6GJQsqaUBKTNV-1" edge="1">
          <mxGeometry width="50" height="50" relative="1" as="geometry">
            <mxPoint x="290" y="184.5" as="sourcePoint" />
            <mxPoint x="320" y="184.5" as="targetPoint" />
          </mxGeometry>
        </mxCell>
        <mxCell id="qHYANq4Pt8BAIVUC_QP_-24" value="" style="endArrow=none;html=1;rounded=0;" parent="WIyWlLk6GJQsqaUBKTNV-1" edge="1">
          <mxGeometry width="50" height="50" relative="1" as="geometry">
            <mxPoint x="290" y="269.5" as="sourcePoint" />
            <mxPoint x="320" y="269.5" as="targetPoint" />
          </mxGeometry>
        </mxCell>
        <mxCell id="qHYANq4Pt8BAIVUC_QP_-25" value="" style="endArrow=none;html=1;rounded=0;" parent="WIyWlLk6GJQsqaUBKTNV-1" edge="1">
          <mxGeometry width="50" height="50" relative="1" as="geometry">
            <mxPoint x="320" y="270" as="sourcePoint" />
            <mxPoint x="320" y="70" as="targetPoint" />
          </mxGeometry>
        </mxCell>
        <mxCell id="qHYANq4Pt8BAIVUC_QP_-26" value="" style="endArrow=classic;html=1;rounded=0;" parent="WIyWlLk6GJQsqaUBKTNV-1" edge="1">
          <mxGeometry width="50" height="50" relative="1" as="geometry">
            <mxPoint x="320" y="184.5" as="sourcePoint" />
            <mxPoint x="350" y="184.5" as="targetPoint" />
          </mxGeometry>
        </mxCell>
        <mxCell id="qHYANq4Pt8BAIVUC_QP_-27" value="起火时间" style="rounded=0;whiteSpace=wrap;html=1;" parent="WIyWlLk6GJQsqaUBKTNV-1" vertex="1">
          <mxGeometry x="610" y="145" width="60" height="30" as="geometry" />
        </mxCell>
        <mxCell id="qHYANq4Pt8BAIVUC_QP_-29" value="起火位置" style="rounded=0;whiteSpace=wrap;html=1;" parent="WIyWlLk6GJQsqaUBKTNV-1" vertex="1">
          <mxGeometry x="610" y="195" width="60" height="30" as="geometry" />
        </mxCell>
        <mxCell id="qHYANq4Pt8BAIVUC_QP_-30" value="京津冀热源点&lt;br&gt;遥感实时监测系统" style="ellipse;whiteSpace=wrap;html=1;" parent="WIyWlLk6GJQsqaUBKTNV-1" vertex="1">
          <mxGeometry x="710" y="145" width="100" height="90" as="geometry" />
        </mxCell>
        <mxCell id="qHYANq4Pt8BAIVUC_QP_-36" value="" style="edgeStyle=orthogonalEdgeStyle;rounded=0;orthogonalLoop=1;jettySize=auto;html=1;" parent="WIyWlLk6GJQsqaUBKTNV-1" target="qHYANq4Pt8BAIVUC_QP_-29" edge="1">
          <mxGeometry relative="1" as="geometry">
            <mxPoint x="690" y="210" as="sourcePoint" />
          </mxGeometry>
        </mxCell>
        <mxCell id="qHYANq4Pt8BAIVUC_QP_-33" value="" style="endArrow=classic;html=1;rounded=0;" parent="WIyWlLk6GJQsqaUBKTNV-1" edge="1">
          <mxGeometry width="50" height="50" relative="1" as="geometry">
            <mxPoint x="690" y="160" as="sourcePoint" />
            <mxPoint x="670" y="160" as="targetPoint" />
          </mxGeometry>
        </mxCell>
        <mxCell id="qHYANq4Pt8BAIVUC_QP_-35" value="" style="endArrow=classic;html=1;rounded=0;" parent="WIyWlLk6GJQsqaUBKTNV-1" edge="1">
          <mxGeometry width="50" height="50" relative="1" as="geometry">
            <mxPoint x="690" y="210" as="sourcePoint" />
            <mxPoint x="670" y="210" as="targetPoint" />
          </mxGeometry>
        </mxCell>
        <mxCell id="qHYANq4Pt8BAIVUC_QP_-37" value="" style="endArrow=none;html=1;rounded=0;" parent="WIyWlLk6GJQsqaUBKTNV-1" edge="1">
          <mxGeometry width="50" height="50" relative="1" as="geometry">
            <mxPoint x="600" y="160" as="sourcePoint" />
            <mxPoint x="610" y="160" as="targetPoint" />
          </mxGeometry>
        </mxCell>
        <mxCell id="qHYANq4Pt8BAIVUC_QP_-38" value="" style="endArrow=none;html=1;rounded=0;" parent="WIyWlLk6GJQsqaUBKTNV-1" edge="1">
          <mxGeometry width="50" height="50" relative="1" as="geometry">
            <mxPoint x="600" y="210" as="sourcePoint" />
            <mxPoint x="610" y="209.5" as="targetPoint" />
          </mxGeometry>
        </mxCell>
        <mxCell id="qHYANq4Pt8BAIVUC_QP_-39" value="" style="endArrow=none;html=1;rounded=0;" parent="WIyWlLk6GJQsqaUBKTNV-1" edge="1">
          <mxGeometry width="50" height="50" relative="1" as="geometry">
            <mxPoint x="600" y="210" as="sourcePoint" />
            <mxPoint x="600" y="160" as="targetPoint" />
          </mxGeometry>
        </mxCell>
        <mxCell id="qHYANq4Pt8BAIVUC_QP_-40" value="" style="endArrow=classic;html=1;rounded=0;" parent="WIyWlLk6GJQsqaUBKTNV-1" edge="1">
          <mxGeometry width="50" height="50" relative="1" as="geometry">
            <mxPoint x="600" y="185" as="sourcePoint" />
            <mxPoint x="580" y="184.5" as="targetPoint" />
          </mxGeometry>
        </mxCell>
        <mxCell id="qHYANq4Pt8BAIVUC_QP_-41" value="" style="endArrow=none;html=1;rounded=0;" parent="WIyWlLk6GJQsqaUBKTNV-1" edge="1">
          <mxGeometry width="50" height="50" relative="1" as="geometry">
            <mxPoint x="400" y="250" as="sourcePoint" />
            <mxPoint x="399.5" y="220" as="targetPoint" />
          </mxGeometry>
        </mxCell>
        <mxCell id="qHYANq4Pt8BAIVUC_QP_-42" value="" style="endArrow=none;html=1;rounded=0;" parent="WIyWlLk6GJQsqaUBKTNV-1" edge="1">
          <mxGeometry width="50" height="50" relative="1" as="geometry">
            <mxPoint x="541" y="250" as="sourcePoint" />
            <mxPoint x="540.5" y="220" as="targetPoint" />
          </mxGeometry>
        </mxCell>
        <mxCell id="qHYANq4Pt8BAIVUC_QP_-43" value="" style="endArrow=none;html=1;rounded=0;" parent="WIyWlLk6GJQsqaUBKTNV-1" edge="1">
          <mxGeometry width="50" height="50" relative="1" as="geometry">
            <mxPoint x="400" y="250" as="sourcePoint" />
            <mxPoint x="540" y="250" as="targetPoint" />
          </mxGeometry>
        </mxCell>
        <mxCell id="qHYANq4Pt8BAIVUC_QP_-44" value="" style="endArrow=classic;html=1;rounded=0;" parent="WIyWlLk6GJQsqaUBKTNV-1" edge="1">
          <mxGeometry width="50" height="50" relative="1" as="geometry">
            <mxPoint x="320" y="280" as="sourcePoint" />
            <mxPoint x="321" y="320" as="targetPoint" />
          </mxGeometry>
        </mxCell>
        <mxCell id="qHYANq4Pt8BAIVUC_QP_-45" value="地形重力波&lt;br&gt;参数化方案" style="rounded=0;whiteSpace=wrap;html=1;" parent="WIyWlLk6GJQsqaUBKTNV-1" vertex="1">
          <mxGeometry x="280" y="320" width="90" height="40" as="geometry" />
        </mxCell>
        <mxCell id="qHYANq4Pt8BAIVUC_QP_-46" value="" style="endArrow=none;html=1;rounded=0;" parent="WIyWlLk6GJQsqaUBKTNV-1" edge="1">
          <mxGeometry width="50" height="50" relative="1" as="geometry">
            <mxPoint x="472" y="280" as="sourcePoint" />
            <mxPoint x="472" y="250" as="targetPoint" />
          </mxGeometry>
        </mxCell>
        <mxCell id="qHYANq4Pt8BAIVUC_QP_-47" value="" style="endArrow=none;html=1;rounded=0;" parent="WIyWlLk6GJQsqaUBKTNV-1" edge="1">
          <mxGeometry width="50" height="50" relative="1" as="geometry">
            <mxPoint x="319" y="280" as="sourcePoint" />
            <mxPoint x="629" y="280" as="targetPoint" />
          </mxGeometry>
        </mxCell>
        <mxCell id="qHYANq4Pt8BAIVUC_QP_-48" value="地形平滑方案" style="rounded=0;whiteSpace=wrap;html=1;" parent="WIyWlLk6GJQsqaUBKTNV-1" vertex="1">
          <mxGeometry x="380" y="320" width="90" height="40" as="geometry" />
        </mxCell>
        <mxCell id="qHYANq4Pt8BAIVUC_QP_-49" value="斜坡及阴影效果" style="rounded=0;whiteSpace=wrap;html=1;" parent="WIyWlLk6GJQsqaUBKTNV-1" vertex="1">
          <mxGeometry x="480" y="320" width="90" height="40" as="geometry" />
        </mxCell>
        <mxCell id="qHYANq4Pt8BAIVUC_QP_-50" value="是否耦合大气场" style="rounded=0;whiteSpace=wrap;html=1;" parent="WIyWlLk6GJQsqaUBKTNV-1" vertex="1">
          <mxGeometry x="580" y="320" width="90" height="40" as="geometry" />
        </mxCell>
        <mxCell id="qHYANq4Pt8BAIVUC_QP_-52" value="" style="endArrow=classic;html=1;rounded=0;" parent="WIyWlLk6GJQsqaUBKTNV-1" edge="1">
          <mxGeometry width="50" height="50" relative="1" as="geometry">
            <mxPoint x="627" y="280" as="sourcePoint" />
            <mxPoint x="627" y="320" as="targetPoint" />
          </mxGeometry>
        </mxCell>
        <mxCell id="qHYANq4Pt8BAIVUC_QP_-53" value="" style="endArrow=classic;html=1;rounded=0;" parent="WIyWlLk6GJQsqaUBKTNV-1" edge="1">
          <mxGeometry width="50" height="50" relative="1" as="geometry">
            <mxPoint x="424.5" y="280" as="sourcePoint" />
            <mxPoint x="425.5" y="320" as="targetPoint" />
          </mxGeometry>
        </mxCell>
        <mxCell id="qHYANq4Pt8BAIVUC_QP_-54" value="" style="endArrow=classic;html=1;rounded=0;" parent="WIyWlLk6GJQsqaUBKTNV-1" edge="1">
          <mxGeometry width="50" height="50" relative="1" as="geometry">
            <mxPoint x="524.5" y="280" as="sourcePoint" />
            <mxPoint x="525.5" y="320" as="targetPoint" />
          </mxGeometry>
        </mxCell>
        <mxCell id="qHYANq4Pt8BAIVUC_QP_-55" value="" style="endArrow=none;html=1;rounded=0;" parent="WIyWlLk6GJQsqaUBKTNV-1" edge="1">
          <mxGeometry width="50" height="50" relative="1" as="geometry">
            <mxPoint x="325" y="390" as="sourcePoint" />
            <mxPoint x="324.5" y="360" as="targetPoint" />
          </mxGeometry>
        </mxCell>
        <mxCell id="qHYANq4Pt8BAIVUC_QP_-56" value="" style="endArrow=none;html=1;rounded=0;" parent="WIyWlLk6GJQsqaUBKTNV-1" edge="1">
          <mxGeometry width="50" height="50" relative="1" as="geometry">
            <mxPoint x="628.5" y="360" as="sourcePoint" />
            <mxPoint x="628.5" y="390" as="targetPoint" />
          </mxGeometry>
        </mxCell>
        <mxCell id="qHYANq4Pt8BAIVUC_QP_-57" value="" style="endArrow=none;html=1;rounded=0;" parent="WIyWlLk6GJQsqaUBKTNV-1" edge="1">
          <mxGeometry width="50" height="50" relative="1" as="geometry">
            <mxPoint x="326" y="390" as="sourcePoint" />
            <mxPoint x="630" y="390" as="targetPoint" />
          </mxGeometry>
        </mxCell>
        <mxCell id="qHYANq4Pt8BAIVUC_QP_-58" value="" style="endArrow=none;html=1;rounded=0;" parent="WIyWlLk6GJQsqaUBKTNV-1" edge="1">
          <mxGeometry width="50" height="50" relative="1" as="geometry">
            <mxPoint x="425" y="390" as="sourcePoint" />
            <mxPoint x="424.5" y="360" as="targetPoint" />
          </mxGeometry>
        </mxCell>
        <mxCell id="qHYANq4Pt8BAIVUC_QP_-59" value="" style="endArrow=none;html=1;rounded=0;" parent="WIyWlLk6GJQsqaUBKTNV-1" edge="1">
          <mxGeometry width="50" height="50" relative="1" as="geometry">
            <mxPoint x="530" y="390" as="sourcePoint" />
            <mxPoint x="529.5" y="360" as="targetPoint" />
          </mxGeometry>
        </mxCell>
        <mxCell id="qHYANq4Pt8BAIVUC_QP_-63" value="" style="endArrow=classic;html=1;rounded=0;" parent="WIyWlLk6GJQsqaUBKTNV-1" edge="1">
          <mxGeometry width="50" height="50" relative="1" as="geometry">
            <mxPoint x="360" y="410" as="sourcePoint" />
            <mxPoint x="359.5" y="430" as="targetPoint" />
          </mxGeometry>
        </mxCell>
        <mxCell id="qHYANq4Pt8BAIVUC_QP_-64" value="林火过火区模拟" style="shape=parallelogram;perimeter=parallelogramPerimeter;whiteSpace=wrap;html=1;fixedSize=1;" parent="WIyWlLk6GJQsqaUBKTNV-1" vertex="1">
          <mxGeometry x="330" y="430" width="120" height="30" as="geometry" />
        </mxCell>
        <mxCell id="qHYANq4Pt8BAIVUC_QP_-65" value="火场气象环境模拟" style="shape=parallelogram;perimeter=parallelogramPerimeter;whiteSpace=wrap;html=1;fixedSize=1;" parent="WIyWlLk6GJQsqaUBKTNV-1" vertex="1">
          <mxGeometry x="530" y="430" width="140" height="30" as="geometry" />
        </mxCell>
        <mxCell id="qHYANq4Pt8BAIVUC_QP_-66" value="" style="endArrow=none;html=1;rounded=0;" parent="WIyWlLk6GJQsqaUBKTNV-1" edge="1">
          <mxGeometry width="50" height="50" relative="1" as="geometry">
            <mxPoint x="470" y="410" as="sourcePoint" />
            <mxPoint x="470" y="390" as="targetPoint" />
          </mxGeometry>
        </mxCell>
        <mxCell id="qHYANq4Pt8BAIVUC_QP_-67" value="" style="endArrow=none;html=1;rounded=0;" parent="WIyWlLk6GJQsqaUBKTNV-1" edge="1">
          <mxGeometry width="50" height="50" relative="1" as="geometry">
            <mxPoint x="360" y="410" as="sourcePoint" />
            <mxPoint x="600" y="410" as="targetPoint" />
          </mxGeometry>
        </mxCell>
        <mxCell id="qHYANq4Pt8BAIVUC_QP_-68" value="" style="endArrow=classic;html=1;rounded=0;" parent="WIyWlLk6GJQsqaUBKTNV-1" edge="1">
          <mxGeometry width="50" height="50" relative="1" as="geometry">
            <mxPoint x="599" y="411" as="sourcePoint" />
            <mxPoint x="598.5" y="431" as="targetPoint" />
          </mxGeometry>
        </mxCell>
        <mxCell id="qHYANq4Pt8BAIVUC_QP_-69" value="Sentinel-2&lt;br&gt;卫星数据" style="ellipse;whiteSpace=wrap;html=1;" parent="WIyWlLk6GJQsqaUBKTNV-1" vertex="1">
          <mxGeometry x="10" y="430" width="80" height="40" as="geometry" />
        </mxCell>
        <mxCell id="qHYANq4Pt8BAIVUC_QP_-70" value="林火过火区提取" style="shape=parallelogram;perimeter=parallelogramPerimeter;whiteSpace=wrap;html=1;fixedSize=1;" parent="WIyWlLk6GJQsqaUBKTNV-1" vertex="1">
          <mxGeometry x="210" y="430" width="120" height="30" as="geometry" />
        </mxCell>
        <mxCell id="qHYANq4Pt8BAIVUC_QP_-71" value="燃烧指数&lt;br&gt;植被指数" style="rounded=0;whiteSpace=wrap;html=1;" parent="WIyWlLk6GJQsqaUBKTNV-1" vertex="1">
          <mxGeometry x="120" y="400" width="70" height="40" as="geometry" />
        </mxCell>
        <mxCell id="qHYANq4Pt8BAIVUC_QP_-72" value="IR-MAD算法" style="rounded=0;whiteSpace=wrap;html=1;" parent="WIyWlLk6GJQsqaUBKTNV-1" vertex="1">
          <mxGeometry x="120" y="460" width="70" height="40" as="geometry" />
        </mxCell>
        <mxCell id="qHYANq4Pt8BAIVUC_QP_-74" value="" style="endArrow=none;html=1;rounded=0;" parent="WIyWlLk6GJQsqaUBKTNV-1" edge="1">
          <mxGeometry width="50" height="50" relative="1" as="geometry">
            <mxPoint x="92" y="450" as="sourcePoint" />
            <mxPoint x="100.5" y="449.5" as="targetPoint" />
          </mxGeometry>
        </mxCell>
        <mxCell id="qHYANq4Pt8BAIVUC_QP_-75" value="" style="endArrow=none;html=1;rounded=0;" parent="WIyWlLk6GJQsqaUBKTNV-1" edge="1">
          <mxGeometry width="50" height="50" relative="1" as="geometry">
            <mxPoint x="101" y="480" as="sourcePoint" />
            <mxPoint x="101" y="420" as="targetPoint" />
          </mxGeometry>
        </mxCell>
        <mxCell id="qHYANq4Pt8BAIVUC_QP_-76" value="" style="endArrow=classic;html=1;rounded=0;" parent="WIyWlLk6GJQsqaUBKTNV-1" edge="1">
          <mxGeometry width="50" height="50" relative="1" as="geometry">
            <mxPoint x="110" y="420" as="sourcePoint" />
            <mxPoint x="119" y="419.5" as="targetPoint" />
            <Array as="points">
              <mxPoint x="100" y="420" />
            </Array>
          </mxGeometry>
        </mxCell>
        <mxCell id="qHYANq4Pt8BAIVUC_QP_-78" value="" style="endArrow=classic;html=1;rounded=0;" parent="WIyWlLk6GJQsqaUBKTNV-1" edge="1">
          <mxGeometry width="50" height="50" relative="1" as="geometry">
            <mxPoint x="112" y="479" as="sourcePoint" />
            <mxPoint x="121" y="478.5" as="targetPoint" />
            <Array as="points">
              <mxPoint x="102" y="479" />
            </Array>
          </mxGeometry>
        </mxCell>
        <mxCell id="qHYANq4Pt8BAIVUC_QP_-79" value="" style="endArrow=none;html=1;rounded=0;" parent="WIyWlLk6GJQsqaUBKTNV-1" edge="1">
          <mxGeometry width="50" height="50" relative="1" as="geometry">
            <mxPoint x="200" y="480" as="sourcePoint" />
            <mxPoint x="200" y="415" as="targetPoint" />
          </mxGeometry>
        </mxCell>
        <mxCell id="qHYANq4Pt8BAIVUC_QP_-80" value="" style="endArrow=classic;html=1;rounded=0;" parent="WIyWlLk6GJQsqaUBKTNV-1" edge="1">
          <mxGeometry width="50" height="50" relative="1" as="geometry">
            <mxPoint x="200" y="445" as="sourcePoint" />
            <mxPoint x="220" y="444.5" as="targetPoint" />
          </mxGeometry>
        </mxCell>
        <mxCell id="qHYANq4Pt8BAIVUC_QP_-81" value="" style="endArrow=none;html=1;rounded=0;" parent="WIyWlLk6GJQsqaUBKTNV-1" edge="1">
          <mxGeometry width="50" height="50" relative="1" as="geometry">
            <mxPoint x="190" y="415.5" as="sourcePoint" />
            <mxPoint x="200" y="416" as="targetPoint" />
          </mxGeometry>
        </mxCell>
        <mxCell id="qHYANq4Pt8BAIVUC_QP_-82" value="" style="endArrow=none;html=1;rounded=0;" parent="WIyWlLk6GJQsqaUBKTNV-1" edge="1">
          <mxGeometry width="50" height="50" relative="1" as="geometry">
            <mxPoint x="191" y="479.5" as="sourcePoint" />
            <mxPoint x="200" y="480" as="targetPoint" />
          </mxGeometry>
        </mxCell>
        <mxCell id="qHYANq4Pt8BAIVUC_QP_-83" value="CMA&lt;br&gt;站点数据" style="ellipse;whiteSpace=wrap;html=1;" parent="WIyWlLk6GJQsqaUBKTNV-1" vertex="1">
          <mxGeometry x="690" y="425" width="80" height="40" as="geometry" />
        </mxCell>
        <mxCell id="qHYANq4Pt8BAIVUC_QP_-84" value="" style="endArrow=none;html=1;rounded=0;" parent="WIyWlLk6GJQsqaUBKTNV-1" edge="1">
          <mxGeometry width="50" height="50" relative="1" as="geometry">
            <mxPoint x="266" y="480" as="sourcePoint" />
            <mxPoint x="265.5" y="460" as="targetPoint" />
          </mxGeometry>
        </mxCell>
        <mxCell id="qHYANq4Pt8BAIVUC_QP_-85" value="" style="endArrow=none;html=1;rounded=0;" parent="WIyWlLk6GJQsqaUBKTNV-1" edge="1">
          <mxGeometry width="50" height="50" relative="1" as="geometry">
            <mxPoint x="267" y="479.5" as="sourcePoint" />
            <mxPoint x="380" y="480" as="targetPoint" />
          </mxGeometry>
        </mxCell>
        <mxCell id="qHYANq4Pt8BAIVUC_QP_-86" value="" style="endArrow=none;html=1;rounded=0;" parent="WIyWlLk6GJQsqaUBKTNV-1" edge="1">
          <mxGeometry width="50" height="50" relative="1" as="geometry">
            <mxPoint x="600" y="479.5" as="sourcePoint" />
            <mxPoint x="730" y="480" as="targetPoint" />
          </mxGeometry>
        </mxCell>
        <mxCell id="qHYANq4Pt8BAIVUC_QP_-88" value="" style="endArrow=none;html=1;rounded=0;" parent="WIyWlLk6GJQsqaUBKTNV-1" edge="1">
          <mxGeometry width="50" height="50" relative="1" as="geometry">
            <mxPoint x="379" y="481" as="sourcePoint" />
            <mxPoint x="378.5" y="461" as="targetPoint" />
          </mxGeometry>
        </mxCell>
        <mxCell id="qHYANq4Pt8BAIVUC_QP_-89" value="" style="endArrow=none;html=1;rounded=0;" parent="WIyWlLk6GJQsqaUBKTNV-1" edge="1">
          <mxGeometry width="50" height="50" relative="1" as="geometry">
            <mxPoint x="600" y="482" as="sourcePoint" />
            <mxPoint x="599.5" y="462" as="targetPoint" />
          </mxGeometry>
        </mxCell>
        <mxCell id="qHYANq4Pt8BAIVUC_QP_-90" value="" style="endArrow=none;html=1;rounded=0;" parent="WIyWlLk6GJQsqaUBKTNV-1" edge="1">
          <mxGeometry width="50" height="50" relative="1" as="geometry">
            <mxPoint x="729" y="480" as="sourcePoint" />
            <mxPoint x="728.5" y="465" as="targetPoint" />
          </mxGeometry>
        </mxCell>
        <mxCell id="qHYANq4Pt8BAIVUC_QP_-92" value="" style="endArrow=classic;html=1;rounded=0;" parent="WIyWlLk6GJQsqaUBKTNV-1" edge="1">
          <mxGeometry width="50" height="50" relative="1" as="geometry">
            <mxPoint x="324.5" y="480" as="sourcePoint" />
            <mxPoint x="325" y="500" as="targetPoint" />
          </mxGeometry>
        </mxCell>
        <mxCell id="qHYANq4Pt8BAIVUC_QP_-93" value="" style="endArrow=classic;html=1;rounded=0;" parent="WIyWlLk6GJQsqaUBKTNV-1" edge="1">
          <mxGeometry width="50" height="50" relative="1" as="geometry">
            <mxPoint x="662.5" y="481" as="sourcePoint" />
            <mxPoint x="663" y="501" as="targetPoint" />
          </mxGeometry>
        </mxCell>
        <mxCell id="qHYANq4Pt8BAIVUC_QP_-94" value="空间对比" style="shape=parallelogram;perimeter=parallelogramPerimeter;whiteSpace=wrap;html=1;fixedSize=1;" parent="WIyWlLk6GJQsqaUBKTNV-1" vertex="1">
          <mxGeometry x="260" y="500" width="130" height="30" as="geometry" />
        </mxCell>
        <mxCell id="qHYANq4Pt8BAIVUC_QP_-97" value="空间对比&amp;amp;时序评估" style="shape=parallelogram;perimeter=parallelogramPerimeter;whiteSpace=wrap;html=1;fixedSize=1;" parent="WIyWlLk6GJQsqaUBKTNV-1" vertex="1">
          <mxGeometry x="590" y="500" width="140" height="30" as="geometry" />
        </mxCell>
        <mxCell id="DQU9immBWG_Fy1HtZXni-0" value="" style="endArrow=none;html=1;rounded=0;" edge="1" parent="WIyWlLk6GJQsqaUBKTNV-1">
          <mxGeometry width="50" height="50" relative="1" as="geometry">
            <mxPoint x="690" y="210" as="sourcePoint" />
            <mxPoint x="690" y="160" as="targetPoint" />
          </mxGeometry>
        </mxCell>
        <mxCell id="DQU9immBWG_Fy1HtZXni-1" value="" style="endArrow=none;html=1;rounded=0;" edge="1" parent="WIyWlLk6GJQsqaUBKTNV-1">
          <mxGeometry width="50" height="50" relative="1" as="geometry">
            <mxPoint x="690" y="182" as="sourcePoint" />
            <mxPoint x="710" y="182" as="targetPoint" />
          </mxGeometry>
        </mxCell>
      </root>
    </mxGraphModel>
  </diagram>
</mxfile>
